<?xml version="1.0" encoding="UTF-8" standalone="no"?>
<svg
   xmlns:dc="http://purl.org/dc/elements/1.1/"
   xmlns:cc="http://creativecommons.org/ns#"
   xmlns:rdf="http://www.w3.org/1999/02/22-rdf-syntax-ns#"
   xmlns:svg="http://www.w3.org/2000/svg"
   xmlns="http://www.w3.org/2000/svg"
   viewBox="0 0 75.75 75.750003"
   height="75.75"
   width="75.75"
   xml:space="preserve"
   id="svg2"
   version="1.1"><metadata
     id="metadata8"><rdf:RDF><cc:Work
         rdf:about=""><dc:format>image/svg+xml</dc:format><dc:type
           rdf:resource="http://purl.org/dc/dcmitype/StillImage" /></cc:Work></rdf:RDF></metadata><defs
     id="defs6" /><g
     transform="matrix(1.3333333,0,0,-1.3333333,-7.1249998,1106.667)"
     id="g10"><g
       transform="scale(0.1)"
       id="g12"><path
         id="path14"
         style="fill:none;stroke:#000000;stroke-width:5.625;stroke-linecap:butt;stroke-linejoin:miter;stroke-miterlimit:10;stroke-dasharray:none;stroke-opacity:1"
         d="m 112.5,7790.94 h 450 v 225 h -450 z" /><g
         transform="scale(10)"
         id="g16"><g
           id="text22"
           style="font-variant:normal;font-weight:normal;font-size:7.875px;font-family:'Courier 10 Pitch';-inkscape-font-specification:Courier;writing-mode:lr-tb;fill:#000000;fill-opacity:1;fill-rule:nonzero;stroke:none"
           transform="matrix(1,0,0,-1,17.2137,790.344)"
           aria-label="Encoded
Format"><path
             id="path34"
             d="m 0.7245,0 h 3.173625 c 0.17325,0 0.26775,-0.102375 0.26775,-0.2835 v -0.968625 c 0,-0.259875 -0.04725,-0.378 -0.26775,-0.378 -0.252,0 -0.275625,0.14175 -0.275625,0.464625 v 0.622125 H 1.575 v -1.701 h 1.008 c 0,0.039375 0,0.07875 0,0.11025 0,0.33075 0.039375,0.4725 0.244125,0.4725 0.228375,0 0.244125,-0.14175 0.244125,-0.448875 v -0.716625 c 0,-0.315 -0.0315,-0.45675 -0.244125,-0.45675 -0.196875,0 -0.252,0.11025 -0.252,0.370125 0,0.01575 0.00788,0.086625 0.00788,0.20475 H 1.575 v -1.299375 h 2.0475 v 0.55125 c 0,0.070875 0,0.11025 0,0.126 0,0.23625 0.070875,0.338625 0.275625,0.338625 0.212625,0 0.26775,-0.11025 0.26775,-0.354375 V -4.2525 c 0,-0.20475 -0.0945,-0.307125 -0.26775,-0.307125 H 0.7245 c -0.307125,0 -0.464625,0.01575 -0.464625,0.275625 0,0.244125 0.133875,0.275625 0.464625,0.275625 h 0.244125 v 3.465 H 0.7245 c -0.33075,0 -0.464625,0.023625 -0.464625,0.26775 C 0.259875,-0.0945 0.354375,0 0.543375,0 0.622125,0 0.685125,0 0.7245,0 Z" /><path
             id="path36"
             d="m 5.6621249,-0.543375 c -0.0315,0 -0.055125,0 -0.07875,0 -0.315,0 -0.448875,0.04725 -0.448875,0.26775 C 5.1344999,-0.0945 5.2368749,0 5.4573749,0 c 0.102375,0 0.17325,0 0.20475,0 h 0.700875 c 0.291375,0 0.4095,-0.01575 0.4095,-0.275625 0,-0.212625 -0.102375,-0.275625 -0.370125,-0.275625 -0.04725,0 -0.102375,0.007875 -0.165375,0.007875 V -2.142 c 0,-0.574875 0.5355,-0.921375 1.000125,-0.921375 0.504,0 0.7875,0.307125 0.7875,0.921375 v 1.598625 c -0.04725,0 -0.086625,0 -0.126,0 -0.275625,0 -0.385875,0.055125 -0.385875,0.26775 0,0.252 0.11025,0.275625 0.385875,0.275625 h 0.8505 c 0.275625,0 0.4095,-0.055125 0.4095,-0.275625 0,-0.196875 -0.118125,-0.26775 -0.36225,-0.26775 -0.055125,0 -0.118125,0 -0.17325,0 V -2.28375 c 0,-0.889875 -0.51975,-1.37025 -1.252125,-1.37025 -0.401625,0 -0.756,0.17325 -1.126125,0.51975 v -0.259875 c 0,-0.0945 -0.070875,-0.1575 -0.2205,-0.1575 h -0.36225 c -0.354375,0 -0.527625,0 -0.527625,0.26775 0,0.196875 0.11025,0.275625 0.354375,0.275625 0.055125,0 0.118125,0 0.17325,0 z" /><path
             id="path38"
             d="m 13.552875,-2.394 v -0.716625 c 0,-0.33075 -0.03937,-0.4725 -0.275625,-0.4725 -0.196875,0 -0.29925,0.070875 -0.29925,0.244125 0,0 0,0.00787 0,0.01575 -0.42525,-0.212625 -0.811125,-0.322875 -1.21275,-0.322875 -1.1025,0 -1.9372502,0.811125 -1.9372502,1.87425 0,1.063125 0.8268752,1.866375 1.9451252,1.866375 0.92925,0 1.7955,-0.574875 1.7955,-0.937125 0,-0.1575 -0.11025,-0.26775 -0.26775,-0.26775 -0.20475,0 -0.354375,0.189 -0.590625,0.3465 -0.275625,0.181125 -0.590625,0.2835 -0.89775,0.2835 -0.80325,0 -1.315125,-0.5355 -1.315125,-1.299375 0,-0.74025 0.55125,-1.267875 1.346625,-1.267875 0.45675,0 0.819,0.212625 1.05525,0.63 0.118125,0.212625 0.196875,0.307125 0.36225,0.307125 0.189,0 0.291375,-0.0945 0.291375,-0.2835 z" /><path
             id="path40"
             d="m 18.5535,-1.771875 c 0,-1.063125 -0.7875,-1.866375 -2.008125,-1.866375 -1.220625,0 -2.016,0.795375 -2.016,1.866375 0,1.071 0.795375,1.866375 2.016,1.866375 1.220625,0 2.008125,-0.795375 2.008125,-1.866375 z M 16.545375,-0.441 c -0.795375,0 -1.346625,-0.567 -1.346625,-1.330875 0,-0.763875 0.55125,-1.33875 1.346625,-1.33875 0.795375,0 1.346625,0.574875 1.346625,1.33875 0,0.77175 -0.55125,1.330875 -1.346625,1.330875 z" /><path
             id="path42"
             d="m 19.908,-1.724625 c 0,-0.763875 0.48825,-1.267875 1.21275,-1.267875 0.716625,0 1.21275,0.51975 1.21275,1.2285 0,0.70875 -0.511875,1.24425 -1.220625,1.24425 -0.685125,0 -1.204875,-0.480375 -1.204875,-1.204875 z M 22.428,0 h 0.732375 C 23.32575,0 23.436,-0.102375 23.436,-0.275625 c 0,-0.196875 -0.11025,-0.26775 -0.354375,-0.26775 -0.05513,0 -0.118125,0 -0.17325,0 v -4.33125 c 0,-0.11025 -0.07088,-0.1575 -0.2205,-0.1575 h -0.7875 c -0.20475,0 -0.307125,0.0945 -0.307125,0.275625 0,0.252 0.165375,0.275625 0.527625,0.275625 h 0.20475 v 1.472625 c -0.29925,-0.370125 -0.7245,-0.55125 -1.252125,-0.55125 -1.0395,0 -1.827,0.80325 -1.827,1.819125 0,1.078875 0.74025,1.834875 1.708875,1.834875 0.543375,0 1.015875,-0.2205 1.323,-0.606375 v 0.315 C 22.278375,-0.063 22.309875,0 22.428,0 Z" /><path
             id="path44"
             d="m 24.71175,-2.1105 c 0.149625,-0.637875 0.64575,-1.015875 1.323,-1.015875 0.622125,0 1.110375,0.401625 1.18125,1.015875 z m -0.01575,0.504 h 2.583 c 0.4725,0 0.637875,0 0.637875,-0.36225 0,-0.858375 -0.716625,-1.68525 -1.882125,-1.68525 -1.189125,0 -2.008125,0.763875 -2.008125,1.866375 0,1.14975 0.74025,1.882125 1.929375,1.882125 0.51975,0 1.078875,-0.126 1.6065,-0.385875 0.228375,-0.11025 0.338625,-0.228375 0.338625,-0.385875 0,-0.14175 -0.118125,-0.252 -0.26775,-0.252 -0.3465,0 -0.842625,0.480375 -1.62225,0.480375 -0.795375,0 -1.27575,-0.417375 -1.315125,-1.157625 z" /><path
             id="path46"
             d="m 29.358,-1.724625 c 0,-0.763875 0.48825,-1.267875 1.21275,-1.267875 0.716625,0 1.21275,0.51975 1.21275,1.2285 0,0.70875 -0.511875,1.24425 -1.220625,1.24425 -0.685125,0 -1.204875,-0.480375 -1.204875,-1.204875 z M 31.878,0 h 0.732375 C 32.77575,0 32.886,-0.102375 32.886,-0.275625 c 0,-0.196875 -0.11025,-0.26775 -0.354375,-0.26775 -0.05512,0 -0.118125,0 -0.17325,0 v -4.33125 c 0,-0.11025 -0.07088,-0.1575 -0.2205,-0.1575 h -0.7875 c -0.20475,0 -0.307125,0.0945 -0.307125,0.275625 0,0.252 0.165375,0.275625 0.527625,0.275625 h 0.20475 v 1.472625 c -0.29925,-0.370125 -0.7245,-0.55125 -1.252125,-0.55125 -1.0395,0 -1.827,0.80325 -1.827,1.819125 0,1.078875 0.74025,1.834875 1.708875,1.834875 0.543375,0 1.015875,-0.2205 1.323,-0.606375 v 0.315 C 31.728375,-0.063 31.759875,0 31.878,0 Z" /><path
             id="path48"
             d="M 4.701375,7.894125 H 4.032 v -1.701 h 1.015875 c 0,0.039375 0,0.07875 0,0.11025 0,0.33075 0.039375,0.4725 0.244125,0.4725 0.189,0 0.23625,-0.102375 0.23625,-0.338625 v -0.9765 c 0,-0.212625 -0.070875,-0.307125 -0.23625,-0.307125 -0.20475,0 -0.244125,0.14175 -0.244125,0.4725 0,0.0315 0,0.070875 0,0.102375 H 4.032 V 4.429125 h 2.086875 v 0.55125 c 0,0.070875 0,0.11025 0,0.126 0,0.23625 0.070875,0.338625 0.275625,0.338625 0.181125,0 0.26775,-0.0945 0.26775,-0.26775 V 4.185 c 0,-0.20475 -0.0945,-0.307125 -0.26775,-0.307125 h -3.402 c -0.17325,0 -0.26775,0.0945 -0.26775,0.275625 0,0.189 0.0945,0.275625 0.307125,0.275625 0.023625,0 0.070875,0 0.149625,0 h 0.244125 v 3.465 H 3.1815 c -0.070875,0 -0.11025,0 -0.126,0 -0.23625,0 -0.33075,0.063 -0.33075,0.26775 0,0.181125 0.0945,0.275625 0.26775,0.275625 h 1.897875 c 0.17325,0 0.26775,-0.0945 0.26775,-0.275625 0,-0.189 -0.0945,-0.26775 -0.307125,-0.26775 -0.023625,0 -0.070875,0 -0.149625,0 z" /><path
             id="path50"
             d="M 11.466,6.665625 C 11.466,5.6025 10.6785,4.79925 9.4578751,4.79925 c -1.220625,0 -2.016,0.795375 -2.016,1.866375 0,1.071 0.795375,1.866375 2.016,1.866375 C 10.6785,8.532 11.466,7.736625 11.466,6.665625 Z M 9.4578751,7.9965 c -0.795375,0 -1.346625,-0.567 -1.346625,-1.330875 0,-0.763875 0.55125,-1.33875 1.346625,-1.33875 0.7953749,0 1.3466249,0.574875 1.3466249,1.33875 0,0.77175 -0.55125,1.330875 -1.3466249,1.330875 z" /><path
             id="path52"
             d="m 13.804875,7.894125 v -1.59075 c 0.511875,-0.58275 0.945,-0.889875 1.37025,-0.889875 0.29925,0 0.464625,0.23625 0.669375,0.23625 0.165375,0 0.338625,-0.17325 0.338625,-0.36225 0,-0.2835 -0.2835,-0.496125 -0.763875,-0.496125 -0.61425,0 -1.134,0.29925 -1.614375,0.905625 V 5.043375 c 0,-0.11025 -0.07087,-0.1575 -0.212625,-0.1575 h -0.874125 c -0.20475,0 -0.307125,0.086625 -0.307125,0.26775 0,0.196875 0.11025,0.275625 0.36225,0.275625 0.03937,0 0.11025,0 0.196875,0 H 13.23 v 2.464875 h -0.67725 c -0.212625,0 -0.322875,0.086625 -0.322875,0.26775 0,0.181125 0.11025,0.275625 0.315,0.275625 H 15.057 c 0.228375,0 0.315,-0.055125 0.315,-0.275625 0,-0.189 -0.0945,-0.26775 -0.291375,-0.26775 z" /><path
             id="path54"
             d="m 20.309625,6.2955 v 1.756125 c 0,0.252 0.11025,0.385875 0.322875,0.385875 h 0.464625 c 0.181125,0 0.275625,-0.0945 0.275625,-0.275625 0,-0.2205 -0.11025,-0.26775 -0.401625,-0.26775 -0.02362,0 -0.04725,0 -0.07088,0 V 6.15375 c 0,-0.89775 -0.23625,-1.37025 -0.945,-1.37025 -0.370125,0 -0.64575,0.1575 -0.858375,0.4725 -0.11025,-0.315 -0.3465,-0.4725 -0.700875,-0.4725 -0.29925,0 -0.5355,0.102375 -0.74025,0.33075 -0.01575,-0.189 -0.05513,-0.228375 -0.2205,-0.228375 H 16.84462 c -0.20475,0 -0.29925,0.086625 -0.29925,0.26775 0,0.196875 0.11025,0.275625 0.354375,0.275625 0.05513,0 0.118125,0 0.17325,0 v 2.464875 c -0.0315,0 -0.05513,0 -0.07875,0 -0.315,0 -0.448875,0.04725 -0.448875,0.26775 0,0.181125 0.0945,0.275625 0.29925,0.275625 h 1.02375 c 0.228375,0 0.315,-0.055125 0.315,-0.275625 0,-0.212625 -0.102375,-0.275625 -0.370125,-0.275625 -0.04725,0 -0.102375,0.00787 -0.165375,0.00787 V 5.77575 c 0.14175,-0.26775 0.33075,-0.401625 0.567,-0.401625 0.291375,0 0.504,0.228375 0.504,0.622125 0,0.04725 0,0.149625 0,0.29925 v 1.62225 c 0,0.039375 0,0.070875 0,0.102375 0,0.29925 0.01575,0.417375 0.26775,0.417375 h 0.48825 c 0.181125,0 0.26775,-0.0945 0.26775,-0.275625 0,-0.2205 -0.11025,-0.26775 -0.401625,-0.26775 -0.02363,0 -0.04725,0 -0.07088,0 V 6.2955 c 0,-0.61425 0.26775,-0.921375 0.622125,-0.921375 0.385875,0 0.417375,0.338625 0.417375,0.921375 z" /><path
             id="path56"
             d="m 24.507001,7.94925 0.03937,0.23625 c 0.0315,0.165375 0.126,0.252 0.26775,0.252 h 0.606375 c 0.20475,0 0.307125,-0.0945 0.307125,-0.275625 0,-0.228375 -0.133875,-0.26775 -0.45675,-0.26775 h -0.19687 V 6.15375 c 0,-0.92925 -0.45675,-1.362375 -1.441125,-1.362375 -0.86625,0 -1.43325,0.275625 -1.43325,0.543375 0,0.196875 0.118125,0.322875 0.259875,0.322875 0.29925,0 0.61425,-0.322875 1.157625,-0.322875 0.590625,0 0.86625,0.275625 0.86625,0.86625 0,0.00788 0,0.01575 0,0.023625 -0.315,-0.07875 -0.61425,-0.118125 -0.9135,-0.118125 -1.141875,0 -1.77975,0.480375 -1.77975,1.27575 0,0.67725 0.504,1.14975 1.27575,1.14975 0.527625,0 1.02375,-0.20475 1.441125,-0.58275 z M 24.483376,6.7365 v 0.417375 c 0,0.3465 -0.63,0.7875 -1.323,0.7875 -0.448875,0 -0.756,-0.259875 -0.756,-0.5985 0,-0.433125 0.448875,-0.74025 1.267875,-0.74025 0.2835,0 0.55125,0.04725 0.811125,0.133875 z" /><path
             id="path58"
             d="m 29.405249,5.0985 h -1.512 V 4.318875 c 0,-0.378 -0.0315,-0.5355 -0.307125,-0.5355 -0.20475,0 -0.29925,0.11025 -0.29925,0.322875 0,0.102375 0,0.17325 0,0.20475 v 0.7875 h -0.42525 c -0.370125,0 -0.527625,0.023625 -0.527625,0.275625 0,0.189 0.0945,0.26775 0.307125,0.26775 h 0.64575 V 6.9255 c 0,0.039375 0,0.07875 0,0.118125 0,0.354375 0.0079,0.6615 0.14175,0.889875 0.2205,0.385875 0.63,0.574875 1.220625,0.574875 0.36225,0 0.763875,-0.102375 1.24425,-0.291375 0.2835,-0.11025 0.42525,-0.2205 0.42525,-0.401625 0,-0.14175 -0.126,-0.275625 -0.26775,-0.275625 -0.307125,0 -0.819,0.4095 -1.441125,0.4095 -0.67725,0 -0.7245,-0.4095 -0.7245,-1.02375 V 5.641875 h 1.55925 c 0.212625,0 0.322875,-0.086625 0.322875,-0.26775 0,-0.196875 -0.118125,-0.275625 -0.36225,-0.275625 z" /></g></g><path
         id="path24"
         style="fill:none;stroke:#000000;stroke-width:5.625;stroke-linecap:butt;stroke-linejoin:miter;stroke-miterlimit:10;stroke-dasharray:none;stroke-opacity:1"
         d="m 56.25,7734.69 h 562.5 v 562.5 H 56.25 Z" /><g
         transform="scale(10)"
         id="g26"><g
           id="text32"
           style="font-variant:normal;font-weight:normal;font-size:7.875px;font-family:'Courier 10 Pitch';-inkscape-font-specification:Courier;writing-mode:lr-tb;fill:#000000;fill-opacity:1;fill-rule:nonzero;stroke:none"
           transform="matrix(1,0,0,-1,24.3008,818.469)"
           aria-label="File
Format"><path
             id="path61"
             d="M 2.338875,-0.543375 H 1.6695 v -1.701 h 1.015875 c 0,0.039375 0,0.07875 0,0.11025 0,0.33075 0.039375,0.4725 0.244125,0.4725 0.189,0 0.23625,-0.102375 0.23625,-0.338625 v -0.9765 c 0,-0.212625 -0.070875,-0.307125 -0.23625,-0.307125 -0.20475,0 -0.244125,0.14175 -0.244125,0.4725 0,0.0315 0,0.070875 0,0.102375 H 1.6695 v -1.299375 h 2.086875 v 0.55125 c 0,0.070875 0,0.11025 0,0.126 0,0.23625 0.070875,0.338625 0.275625,0.338625 0.181125,0 0.26775,-0.0945 0.26775,-0.26775 V -4.2525 c 0,-0.20475 -0.0945,-0.307125 -0.26775,-0.307125 H 0.63 c -0.17325,0 -0.26775,0.0945 -0.26775,0.275625 0,0.189 0.0945,0.275625 0.307125,0.275625 0.023625,0 0.070875,0 0.149625,0 h 0.244125 v 3.465 H 0.819 c -0.070875,0 -0.11025,0 -0.126,0 -0.23625,0 -0.33075,0.063 -0.33075,0.26775 C 0.36225,-0.0945 0.45675,0 0.63,0 h 1.897875 c 0.17325,0 0.26775,-0.0945 0.26775,-0.275625 0,-0.189 -0.0945,-0.26775 -0.307125,-0.26775 -0.023625,0 -0.070875,0 -0.149625,0 z" /><path
             id="path63"
             d="m 7.4497499,-0.543375 v -2.85075 c 0,-0.0945 -0.070875,-0.1575 -0.2205,-0.1575 h -1.126125 c -0.20475,0 -0.307125,0.086625 -0.307125,0.26775 0,0.181125 0.11025,0.275625 0.322875,0.275625 h 0.748125 v 2.464875 h -1.173375 c -0.212625,0 -0.322875,0.086625 -0.322875,0.26775 C 5.3707499,-0.0945 5.4731249,0 5.6778749,0 h 2.984625 c 0.228375,0 0.315,-0.055125 0.315,-0.275625 0,-0.189 -0.0945,-0.26775 -0.291375,-0.26775 z M 6.7331249,-4.662 c 0,0.315 0.07875,0.378 0.401625,0.378 0.370125,0 0.39375,-0.086625 0.39375,-0.48825 0,-0.401625 -0.039375,-0.51975 -0.39375,-0.51975 -0.354375,0 -0.401625,0.118125 -0.401625,0.63 z" /><path
             id="path65"
             d="m 11.5605,-4.480875 v 3.9375 h -1.063125 c -0.212625,0 -0.322875,0.086625 -0.322875,0.26775 C 10.1745,-0.0945 10.276875,0 10.481625,0 h 2.835 c 0.228375,0 0.315,-0.055125 0.315,-0.275625 0,-0.189 -0.0945,-0.26775 -0.291375,-0.26775 h -1.197 v -4.33125 c 0,-0.0945 -0.07088,-0.1575 -0.2205,-0.1575 h -1.267875 c -0.20475,0 -0.307125,0.0945 -0.307125,0.275625 0,0.196875 0.11025,0.26775 0.36225,0.26775 0.03937,0 0.11025,0.00787 0.196875,0.00787 z" /><path
             id="path67"
             d="m 15.26175,-2.1105 c 0.149625,-0.637875 0.64575,-1.015875 1.323,-1.015875 0.622125,0 1.110375,0.401625 1.18125,1.015875 z m -0.01575,0.504 h 2.583 c 0.4725,0 0.637875,0 0.637875,-0.36225 0,-0.858375 -0.716625,-1.68525 -1.882125,-1.68525 -1.189125,0 -2.008125,0.763875 -2.008125,1.866375 0,1.14975 0.74025,1.882125 1.929375,1.882125 0.51975,0 1.078875,-0.126 1.6065,-0.385875 0.228375,-0.11025 0.338625,-0.228375 0.338625,-0.385875 0,-0.14175 -0.118125,-0.252 -0.26775,-0.252 -0.3465,0 -0.842625,0.480375 -1.62225,0.480375 -0.795375,0 -1.27575,-0.417375 -1.315125,-1.157625 z" /><path
             id="path69"
             d="m -2.3857349,7.894125 h -0.669375 v -1.701 h 1.015875 c 0,0.039375 0,0.07875 0,0.11025 0,0.33075 0.039375,0.4725 0.244125,0.4725 0.189,0 0.23625,-0.102375 0.23625,-0.338625 v -0.9765 c 0,-0.212625 -0.070875,-0.307125 -0.23625,-0.307125 -0.20475,0 -0.244125,0.14175 -0.244125,0.4725 0,0.0315 0,0.070875 0,0.102375 h -1.015875 V 4.429125 h 2.08687505 v 0.55125 c 0,0.070875 0,0.11025 0,0.126 0,0.23625 0.070875,0.338625 0.275625,0.338625 0.181125,0 0.26775,-0.0945 0.26775,-0.26775 V 4.185 c 0,-0.20475 -0.0945,-0.307125 -0.26775,-0.307125 H -4.0946099 c -0.17325,0 -0.26775,0.0945 -0.26775,0.275625 0,0.189 0.0945,0.275625 0.307125,0.275625 0.023625,0 0.070875,0 0.149625,0 h 0.244125 v 3.465 h -0.244125 c -0.070875,0 -0.11025,0 -0.126,0 -0.23625,0 -0.33075,0.063 -0.33075,0.26775 0,0.181125 0.0945,0.275625 0.26775,0.275625 h 1.897875 c 0.17325,0 0.26775,-0.0945 0.26775,-0.275625 0,-0.189 -0.0945,-0.26775 -0.307125,-0.26775 -0.023625,0 -0.070875,0 -0.149625,0 z" /><path
             id="path71"
             d="m 4.37889,6.665625 c 0,-1.063125 -0.7875,-1.866375 -2.008125,-1.866375 -1.220625,0 -2.016,0.795375 -2.016,1.866375 0,1.071 0.795375,1.866375 2.016,1.866375 1.220625,0 2.008125,-0.795375 2.008125,-1.866375 z M 2.370765,7.9965 c -0.795375,0 -1.346625,-0.567 -1.346625,-1.330875 0,-0.763875 0.55125,-1.33875 1.346625,-1.33875 0.795375,0 1.346625,0.574875 1.346625,1.33875 0,0.77175 -0.55125,1.330875 -1.346625,1.330875 z" /><path
             id="path73"
             d="M 6.717765,7.894125 V 6.303375 C 7.22964,5.720625 7.662765,5.4135 8.088015,5.4135 c 0.29925,0 0.464625,0.23625 0.669375,0.23625 0.165375,0 0.338625,-0.17325 0.338625,-0.36225 0,-0.2835 -0.2835,-0.496125 -0.763875,-0.496125 -0.61425,0 -1.134,0.29925 -1.614375,0.905625 V 5.043375 c 0,-0.11025 -0.070875,-0.1575 -0.212625,-0.1575 H 5.631015 c -0.20475,0 -0.307125,0.086625 -0.307125,0.26775 0,0.196875 0.11025,0.275625 0.36225,0.275625 0.039375,0 0.11025,0 0.196875,0 H 6.14289 V 7.894125 H 5.46564 c -0.212625,0 -0.322875,0.086625 -0.322875,0.26775 0,0.181125 0.11025,0.275625 0.315,0.275625 H 7.96989 c 0.228375,0 0.315,-0.055125 0.315,-0.275625 0,-0.189 -0.0945,-0.26775 -0.291375,-0.26775 z" /><path
             id="path75"
             d="m 13.222515,6.2955 v 1.756125 c 0,0.252 0.11025,0.385875 0.322875,0.385875 h 0.464625 c 0.181125,0 0.275625,-0.0945 0.275625,-0.275625 0,-0.2205 -0.11025,-0.26775 -0.401625,-0.26775 -0.02362,0 -0.04725,0 -0.07087,0 V 6.15375 c 0,-0.89775 -0.23625,-1.37025 -0.945,-1.37025 -0.370125,0 -0.64575,0.1575 -0.858375,0.4725 -0.11025,-0.315 -0.3465,-0.4725 -0.700875,-0.4725 -0.29925,0 -0.5355,0.102375 -0.74025,0.33075 -0.01575,-0.189 -0.05513,-0.228375 -0.2205,-0.228375 H 9.7575149 c -0.20475,0 -0.29925,0.086625 -0.29925,0.26775 0,0.196875 0.11025,0.275625 0.354375,0.275625 0.055125,0 0.118125,0 0.17325,0 v 2.464875 c -0.0315,0 -0.055125,0 -0.07875,0 -0.315,0 -0.448875,0.04725 -0.448875,0.26775 0,0.181125 0.0945,0.275625 0.29925,0.275625 h 1.0237501 c 0.228375,0 0.315,-0.055125 0.315,-0.275625 0,-0.212625 -0.102375,-0.275625 -0.370125,-0.275625 -0.04725,0 -0.102375,0.00787 -0.165375,0.00787 V 5.77575 c 0.14175,-0.26775 0.33075,-0.401625 0.567,-0.401625 0.291375,0 0.504,0.228375 0.504,0.622125 0,0.04725 0,0.149625 0,0.29925 v 1.62225 c 0,0.039375 0,0.070875 0,0.102375 0,0.29925 0.01575,0.417375 0.26775,0.417375 h 0.48825 c 0.181125,0 0.26775,-0.0945 0.26775,-0.275625 0,-0.2205 -0.11025,-0.26775 -0.401625,-0.26775 -0.02363,0 -0.04725,0 -0.07088,0 V 6.2955 c 0,-0.61425 0.26775,-0.921375 0.622125,-0.921375 0.385875,0 0.417375,0.338625 0.417375,0.921375 z" /><path
             id="path77"
             d="m 17.41989,7.94925 0.03937,0.23625 c 0.0315,0.165375 0.126,0.252 0.26775,0.252 h 0.606375 c 0.20475,0 0.307125,-0.0945 0.307125,-0.275625 0,-0.228375 -0.133875,-0.26775 -0.45675,-0.26775 H 17.98689 V 6.15375 c 0,-0.92925 -0.45675,-1.362375 -1.441125,-1.362375 -0.86625,0 -1.43325,0.275625 -1.43325,0.543375 0,0.196875 0.118125,0.322875 0.259875,0.322875 0.29925,0 0.61425,-0.322875 1.157625,-0.322875 0.590625,0 0.86625,0.275625 0.86625,0.86625 0,0.00788 0,0.01575 0,0.023625 -0.315,-0.07875 -0.61425,-0.118125 -0.9135,-0.118125 -1.141875,0 -1.77975,0.480375 -1.77975,1.27575 0,0.67725 0.504,1.14975 1.27575,1.14975 0.527625,0 1.02375,-0.20475 1.441125,-0.58275 z M 17.396265,6.7365 v 0.417375 c 0,0.3465 -0.63,0.7875 -1.323,0.7875 -0.448875,0 -0.756,-0.259875 -0.756,-0.5985 0,-0.433125 0.448875,-0.74025 1.267875,-0.74025 0.2835,0 0.55125,0.04725 0.811125,0.133875 z" /><path
             id="path79"
             d="m 22.318141,5.0985 h -1.512 V 4.318875 c 0,-0.378 -0.0315,-0.5355 -0.307125,-0.5355 -0.20475,0 -0.29925,0.11025 -0.29925,0.322875 0,0.102375 0,0.17325 0,0.20475 v 0.7875 h -0.42525 c -0.370125,0 -0.527625,0.023625 -0.527625,0.275625 0,0.189 0.0945,0.26775 0.307125,0.26775 h 0.64575 V 6.9255 c 0,0.039375 0,0.07875 0,0.118125 0,0.354375 0.0079,0.6615 0.14175,0.889875 0.2205,0.385875 0.63,0.574875 1.220625,0.574875 0.36225,0 0.763875,-0.102375 1.24425,-0.291375 0.2835,-0.11025 0.42525,-0.2205 0.42525,-0.401625 0,-0.14175 -0.126,-0.275625 -0.26775,-0.275625 -0.307125,0 -0.819,0.4095 -1.441125,0.4095 -0.67725,0 -0.7245,-0.4095 -0.7245,-1.02375 V 5.641875 h 1.55925 c 0.212625,0 0.322875,-0.086625 0.322875,-0.26775 0,-0.196875 -0.118125,-0.275625 -0.36225,-0.275625 z" /></g></g></g></g></svg>